<?xml version="1.0" encoding="UTF-8" standalone="no"?>
<svg width="256px" height="256px" viewBox="0 0 256 256" version="1.1" xmlns="http://www.w3.org/2000/svg" xmlns:xlink="http://www.w3.org/1999/xlink">
    <!-- Generator: Sketch 3.6.1 (26313) - http://www.bohemiancoding.com/sketch -->
    <title>logo</title>
    <desc>Created with Sketch.</desc>
    <defs></defs>
    <g id="Page-1" stroke="none" stroke-width="1" fill="none" fill-rule="evenodd">
        <g id="ui-elements" transform="translate(-522.000000, -128.000000)">
            <g id="logo" transform="translate(522.000000, 128.000000)">
                <circle id="Oval-4" fill="#8C59B7" cx="128" cy="128" r="128"></circle>
                <path d="M136.8,89.8617647 C138.133333,88.2558824 138.666667,86.1147059 138.666667,83.7058824 C138.666667,77.8176471 133.866667,73 128,73 C122.133333,73 117.333333,77.8176471 117.333333,83.7058824 C117.333333,85.8470588 118.133333,87.9882353 119.2,89.8617647 C93.3333333,93.8764706 73.3333333,115.555882 72,142.588235 L72,142.588235 L184,142.588235 L184,142.588235 C182.666667,115.555882 162.666667,93.8764706 136.8,89.8617647 L136.8,89.8617647 Z M115.2,112.879412 C108,115.823529 101.866667,121.176471 98.1333333,127.867647 C97.6,128.670588 96.8,129.205882 95.7333333,129.205882 C95.2,129.205882 94.9333333,129.205882 94.4,128.938235 C93.0666667,128.135294 92.8,126.529412 93.3333333,125.191176 C97.8666667,117.429412 104.8,111.273529 113.066667,108.061765 C114.4,107.526471 116,108.061765 116.533333,109.667647 C117.066667,110.738235 116.533333,112.344118 115.2,112.879412 Z M189.333333,147.941176 L66.6666667,147.941176 C65.0666667,147.941176 64,149.011765 64,150.617647 C64,158.111765 69.8666667,164 77.3333333,164 L178.666667,164 C186.133333,164 192,158.111765 192,150.617647 C192,149.011765 190.933333,147.941176 189.333333,147.941176 Z" id="Combined-Shape" fill="#FFFFFF"></path>
            </g>
        </g>
    </g>
</svg>