<?xml version="1.0" encoding="UTF-8" standalone="no"?>
<svg width="256px" height="256px" viewBox="0 0 256 256" version="1.1" xmlns="http://www.w3.org/2000/svg" xmlns:xlink="http://www.w3.org/1999/xlink" xmlns:sketch="http://www.bohemiancoding.com/sketch/ns">
    <!-- Generator: Sketch 3.4.2 (15857) - http://www.bohemiancoding.com/sketch -->
    <title>logo</title>
    <desc>Created with Sketch.</desc>
    <defs></defs>
    <g id="Page-1" stroke="none" stroke-width="1" fill="none" fill-rule="evenodd" sketch:type="MSPage">
        <g id="logo" sketch:type="MSArtboardGroup" transform="translate(-22.000000, -22.000000)">
            <g sketch:type="MSLayerGroup" transform="translate(22.000000, 22.000000)">
                <circle id="Oval-1" fill="#814FAE" sketch:type="MSShapeGroup" cx="128" cy="128" r="128"></circle>
                <g id="food-48px-glyph_course" transform="translate(65.000000, 74.000000)" fill="#FFFFFF" sketch:type="MSShapeGroup">
                    <g id="Group">
                        <path d="M72.23125,16.8012766 C73.5541667,15.2157447 74.0833333,13.1017021 74.0833333,10.7234043 C74.0833333,4.90978723 69.3208333,0.153191489 63.5,0.153191489 C57.6791667,0.153191489 52.9166667,4.90978723 52.9166667,10.7234043 C52.9166667,12.8374468 53.7104167,14.9514894 54.76875,16.8012766 C29.1041667,20.7651064 9.26041667,42.1697872 7.9375,68.8595745 L7.9375,68.8595745 L119.0625,68.8595745 L119.0625,68.8595745 C117.739583,42.1697872 97.8958333,20.7651064 72.23125,16.8012766 L72.23125,16.8012766 Z M50.8,39.527234 C43.65625,42.4340426 37.5708333,47.7191489 33.8666667,54.3255319 C33.3375,55.1182979 32.54375,55.6468085 31.4854167,55.6468085 C30.95625,55.6468085 30.6916667,55.6468085 30.1625,55.3825532 C28.8395833,54.5897872 28.575,53.0042553 29.1041667,51.6829787 C33.6020833,44.0195745 40.48125,37.9417021 48.6833333,34.7706383 C50.00625,34.2421277 51.59375,34.7706383 52.1229167,36.3561702 C52.6520833,37.4131915 52.1229167,38.9987234 50.8,39.527234 L50.8,39.527234 Z" id="Shape"></path>
                        <path d="M124.354167,74.1446809 L2.64583333,74.1446809 C1.05833333,74.1446809 0,75.2017021 0,76.787234 C0,84.186383 5.82083333,90 13.2291667,90 L113.770833,90 C121.179167,90 127,84.186383 127,76.787234 C127,75.2017021 125.941667,74.1446809 124.354167,74.1446809 L124.354167,74.1446809 Z" id="Shape"></path>
                    </g>
                </g>
            </g>
        </g>
    </g>
</svg>