<?xml version="1.0" encoding="UTF-8" standalone="no"?>
<svg width="300px" height="300px" viewBox="0 0 300 300" version="1.1" xmlns="http://www.w3.org/2000/svg" xmlns:xlink="http://www.w3.org/1999/xlink">
    <!-- Generator: Sketch 3.6.1 (26313) - http://www.bohemiancoding.com/sketch -->
    <title>placeholder</title>
    <desc>Created with Sketch.</desc>
    <defs></defs>
    <g id="Page-1" stroke="none" stroke-width="1" fill="none" fill-rule="evenodd">
        <g id="ui-elements" transform="translate(-119.000000, -106.000000)">
            <g id="placeholder" transform="translate(119.000000, 106.000000)">
                <rect id="Rectangle-23" fill="#ECEADE" x="0" y="0" width="300" height="300" rx="10"></rect>
                <g id="food-48px-outline_course" opacity="0.325734608" transform="translate(74.000000, 100.000000)" stroke-width="5" stroke="#444444">
                    <g id="Group">
                        <path d="M9.91304348,83.3333333 C11.5652174,48 40.6434783,20 76,20 C111.356522,20 140.434783,48 142.086957,83.3333333" id="Shape"></path>
                        <path d="M58.8173913,43.3333333 C49.2347826,47.3333333 40.973913,54.3333333 36.0173913,63.3333333" id="Shape"></path>
                        <ellipse id="Oval" cx="76" cy="10" rx="9.91304348" ry="10"></ellipse>
                        <path d="M152,83.3333333 L0,83.3333333 L0,83.3333333 C0,92.6666667 7.26956522,100 16.5217391,100 L135.478261,100 C144.730435,100 152,92.6666667 152,83.3333333 L152,83.3333333 L152,83.3333333 Z" id="Shape"></path>
                    </g>
                </g>
            </g>
        </g>
    </g>
</svg>